<?xml version="1.0" encoding="utf-8" ?><svg xmlns="http://www.w3.org/2000/svg" xmlns:xlink="http://www.w3.org/1999/xlink" width="1024" height="1024" viewBox="0 0 1024 1024"><path fill="#2A2324" d="M0 0L1024 0L1024 1024L0 1024L0 0Z"/><path fill="#2A2324" d="M523.41 690.863C484.285 697.367 450.324 676.406 431.976 642.131C415.947 612.188 413.747 575.089 424.289 542.957C433.444 515.054 452.274 487.112 479.093 473.373C502.288 461.795 521.618 462.079 545.502 469.854C550.122 471.677 552.309 472.806 555.955 476.19C566.624 475.431 577.609 481.09 585.506 487.962C608.336 508.08 618.47 541.025 620.335 570.703C622.463 604.559 614.457 645.25 592.533 671.846C579.177 688.047 558.686 697.258 538.974 686.197C536.094 688.053 526.727 690.789 523.41 690.863Z"/><path fill="#F4EDEA" d="M555.955 476.19C566.624 475.431 577.609 481.09 585.506 487.962C608.336 508.08 618.47 541.025 620.335 570.703C622.463 604.559 614.457 645.25 592.533 671.846C579.177 688.047 558.686 697.258 538.974 686.197C538.604 686.037 538.234 685.877 537.864 685.717C513.088 672.344 499.214 634.686 495.654 608.421C495.905 606.996 495.995 607.022 496.81 605.75C497.623 610.045 498.437 614.151 499.493 618.393C507.564 650.822 533.648 683.402 570.573 672.901L570.062 671.505C537.968 670.039 520.754 637.957 514.186 610.255L515.313 608.912C519.76 625.292 531.663 644.59 549.826 646.243C581.89 649.16 596.103 612.771 599.082 587.709C599.374 582.203 599.947 576.774 599.042 571.25C598.866 570.175 598.725 568.751 598.671 567.659C594.63 547.297 584.431 522.833 561.753 518.542C536.722 513.805 515.985 542.149 512.273 563.593L511.335 563.219C515.469 538.778 534.774 504.83 563.74 506.808C570.713 507.284 576.777 509.329 582.615 513.131C583.65 513.819 584.402 514.24 585.496 514.827C572.23 496.077 545.297 492.02 526.919 505.5C507.301 519.89 497.071 545.897 494.343 569.304C493.663 569.091 493.676 569.15 493.336 568.607C494.148 544.233 502.356 520.682 516.868 501.083C526.042 488.784 538.096 478.652 553.716 476.346C554.849 476.45 554.826 476.424 555.955 476.19Z"/><path fill="#2A2324" d="M572.302 512.228C591.052 520.569 596.77 529.128 605.381 547.808C620.484 580.569 608.588 648.789 567.564 657.292L567.511 656.06C590.919 643.005 598.562 612.89 600.129 588.046L599.082 587.709C599.374 582.203 599.947 576.774 599.042 571.25C598.866 570.175 598.725 568.751 598.671 567.659L599.785 565.489C597.232 542.6 590.184 526.643 572.302 512.228Z"/><path fill="#ADAEB2" d="M599.785 565.489C600.51 568.297 600.944 585.288 600.129 588.046L599.082 587.709C599.374 582.203 599.947 576.774 599.042 571.25C598.866 570.175 598.725 568.751 598.671 567.659L599.785 565.489Z"/><path fill="#ADAEB2" d="M572.587 671.334C573.392 671.039 574.501 670.818 575.333 671.191C575.655 671.335 575.525 671.698 575.276 671.837C574.69 672.166 573.993 672.218 573.345 672.358L572.587 671.334Z"/><path fill="#83858C" d="M582.615 513.131C583.65 513.819 584.402 514.24 585.496 514.827C585.882 515.101 587.189 516.254 586.906 516.789L586.73 516.823C585.984 516.523 583.373 513.886 582.615 513.131Z"/><path fill="#474444" d="M572.587 671.334L573.345 672.358C572.133 672.476 571.714 672.467 570.573 672.901L570.062 671.505C570.904 671.453 571.746 671.396 572.587 671.334Z"/><path fill="#3C4657" d="M567.511 656.06L567.564 657.292C566.69 657.488 566.11 657.578 565.22 657.709L564.47 657.048C565.616 656.741 566.4 656.471 567.511 656.06Z"/><path fill="#ADAEB2" d="M565.22 657.709C564.687 657.838 562.859 658.33 562.399 657.769L562.414 657.699C562.859 657.258 563.883 657.143 564.47 657.048L565.22 657.709Z"/><path fill="#F4EDEA" d="M523.41 690.863C484.285 697.367 450.324 676.406 431.976 642.131C415.947 612.188 413.747 575.089 424.289 542.957C433.444 515.054 452.274 487.112 479.093 473.373C502.288 461.795 521.618 462.079 545.502 469.854L545.502 471.116C532.721 465.787 516.605 466.066 503.535 470.191C440.69 490.027 413.852 577.003 439.047 634.122C448.671 655.942 465.577 676.557 488.197 685.621C498.78 689.785 510.239 691.225 521.524 689.81L523.41 690.863Z"/><path fill="#ADAEB2" d="M537.864 685.717C538.234 685.877 538.604 686.037 538.974 686.197C536.094 688.053 526.727 690.789 523.41 690.863L521.524 689.81C527.499 688.527 532.039 688.526 537.864 685.717Z"/><path fill="#83858C" d="M514.186 610.255C513.67 607.699 511.678 595.227 513.114 593.49L512.94 593.613L513.122 593.322C512.493 592.022 515.342 609.179 515.313 608.912L514.186 610.255Z"/><path fill="#83858C" d="M495.654 608.421C495.18 606.849 494.689 595.93 494.717 593.742L494.983 593.307L494.794 593.161L494.868 592.916C494.929 592.9 494.989 592.883 495.05 592.866C495.44 593.375 496.738 604.553 496.81 605.75C495.995 607.022 495.905 606.996 495.654 608.421Z"/><path fill="#3C4657" d="M492.893 575.175C493.017 575.466 493.041 575.75 493.296 575.863C493.507 575.8 493.874 575.168 494.013 574.981C494.064 576.168 493.583 585.696 493.183 586.15C493.113 586.14 493.043 586.131 492.973 586.122L493.072 585.718L492.809 585.829L492.996 585.89L493.02 585.667L492.699 585.269C492.598 583.654 492.496 576.458 492.893 575.175Z"/><path fill="#83858C" d="M545.502 469.854C550.122 471.677 552.309 472.806 555.955 476.19C554.826 476.424 554.849 476.45 553.716 476.346C555.311 474.488 546.888 471.605 545.502 471.116L545.502 469.854Z"/><path fill="#83858C" d="M511.335 563.219L512.273 563.593C512.075 564.759 510.877 570.747 510.269 571.505C509.672 570.183 510.806 564.616 511.335 563.219Z"/><path fill="#ADAEB2" d="M492.893 575.175C492.949 573.523 492.831 569.933 493.336 568.607C493.676 569.15 493.663 569.091 494.343 569.304C494.198 571.365 494.021 572.887 494.013 574.981C493.874 575.168 493.507 575.8 493.296 575.863C493.041 575.75 493.017 575.466 492.893 575.175Z"/><path fill="#F4EDEA" d="M551.189 389.018C552.13 384.519 553.333 379.596 554.536 375.383C558.719 360.725 573.423 335.163 590.969 334.698C616.841 334.014 645.273 359.144 664.152 374.65C667.185 368.325 671.64 367.381 678.071 365.798C689.065 363.092 700.106 360.548 711.19 358.233C706.25 366.468 704.91 369.222 702.621 378.551C702.532 379.504 702.254 379.435 701.472 379.927C701.544 373.897 703.823 367.858 706.052 362.306C700.043 363.601 669.806 368.876 667.457 373.311C666.846 374.464 666.987 375.428 667.45 376.589C668.611 379.504 692.609 399.059 697.09 402.624C715.623 400.831 742.235 401.297 761.32 401.061C798.308 400.513 835.3 400.247 872.292 400.262C872.262 395.634 872.086 390.89 872.435 386.282C873.692 369.679 889.954 367.759 902.629 364.829L926.76 359.127C918.931 372.278 920.754 381.531 920.673 396.368C920.63 410.012 920.499 423.655 920.282 437.298C920.244 439.293 920.305 447.133 919.588 448.607L919.368 448.655L918.674 448.366C914.178 446.538 911.261 444.544 906.013 442.695C898.896 439.71 888.243 438.113 880.532 438.833C798.505 446.486 781.944 593.047 855.986 622.668C867.108 627.079 879.257 628.23 891.009 625.985L891.541 627.21C873.957 630.027 860.823 629.608 844.488 621.421C813.455 605.868 799.421 570.77 799.181 537.582C799.023 515.741 804.731 496.712 814.673 477.54C813.838 477.273 813.009 476.988 812.186 476.687C811.656 476.451 811.073 476.172 810.523 475.987C796.045 471.611 782.031 464.749 768.365 458.302C733.195 441.711 694.505 421.709 654.85 420.451C657.432 419.029 661.833 419.623 665.271 419.419C687.659 420.014 710.155 428.085 731.088 435.15C712.577 424.441 685.253 400.452 668.583 385.969C645.131 365.595 632.264 350.579 601.826 339.318C617.855 358.519 617.457 384.426 616.384 408.387C615.019 405.999 616.38 404.441 615.039 400.291C614.111 385.171 611.024 325.796 580.516 342.295C566.67 349.784 556.159 373.916 552.355 388.992L551.189 389.018Z"/><path fill="#2A2324" d="M761.975 404.612L872.472 405.551C872.388 415.97 872.452 426.39 872.665 436.807C854.072 438.041 838.146 448.231 826.118 461.987C821.965 466.681 818.271 471.763 815.088 477.163L814.673 477.54C813.838 477.273 813.009 476.988 812.186 476.687C811.656 476.451 811.073 476.172 810.523 475.987L810.94 475.1C795.574 468.742 775.438 458.289 761.085 449.3L761.975 404.612Z"/><path fill="#ADAEB2" d="M810.94 475.1L813.87 476.17L812.186 476.687C811.656 476.451 811.073 476.172 810.523 475.987L810.94 475.1Z"/><path fill="#474444" d="M813.87 476.17C814.295 476.506 814.678 476.808 815.088 477.163L814.673 477.54C813.838 477.273 813.009 476.988 812.186 476.687L813.87 476.17Z"/><path fill="#2A2324" d="M873.984 436.541L874.654 406.128C874.85 392.334 871.829 377.113 888.707 371.629C899.355 368.17 910.824 365.473 921.793 363.133C917.201 375.365 918.637 387.733 918.745 400.633L919.027 447.557L919.368 448.655L918.674 448.366C914.178 446.538 911.261 444.544 906.013 442.695L906.393 441.538C894.367 437.212 886.67 436.236 873.984 436.541Z"/><path fill="#83858C" d="M906.393 441.538C910.9 442.79 915.217 446.418 919.027 447.557L919.368 448.655L918.674 448.366C914.178 446.538 911.261 444.544 906.013 442.695L906.393 441.538Z"/><path fill="#2A2324" d="M697.889 403.604C701.866 404.107 710.298 403.919 714.62 404.014C728.796 404.35 742.976 404.531 757.156 404.557C756.848 417.948 757.588 434.24 758.064 447.735C738.534 436.067 715.029 418.674 697.889 403.604Z"/><path fill="#F4EDEA" d="M900.886 622.731C880.759 608.322 872.94 582.861 869.066 559.253C864.096 528.959 868.354 492.472 886.291 466.938C895.049 454.469 909.463 446.845 923.079 457.485C939.733 470.502 947.533 496.28 950.213 516.583C954.301 547.556 951.45 585.996 933.133 612.112C925.677 622.742 914.775 628.989 901.985 623.162C901.478 622.82 901.49 622.835 900.886 622.731Z"/><path fill="#2A2324" d="M923.275 610.741C907.407 616.529 895.252 606.927 886.884 594.444C870.705 570.305 867.871 538.923 873.341 510.89C876.778 493.276 887.55 465.325 910.456 469.148C917.569 470.442 922.677 476.129 926.524 482.111C896.204 459.754 885.593 499.418 882.792 521.913L883.978 522.019C885.291 508.411 894.341 484.176 911.396 486.566C926.851 488.731 934.469 515.422 936.632 527.939C936.931 532.066 937.642 535.326 937.572 539.594C937.53 542.157 937.085 545.139 937.134 547.491C931.318 595.615 897.854 608.797 885.829 553.982L884.72 554.421C886.387 568.927 892.34 588.243 901.872 599.627C908.042 606.995 913.806 609.938 923.275 610.741Z"/><path fill="#83858C" d="M883.978 522.019C883.961 522.535 883.961 523.045 883.917 523.25C883.202 526.574 883.95 531.046 883.108 534.146C883.096 534.189 882.904 534.156 882.946 534.159C882.803 534.052 882.893 534.152 882.722 533.675L882.967 533.802C882.269 532.778 882.288 523.501 882.792 521.913L883.978 522.019Z"/><path fill="#83858C" d="M884.72 554.421C883.945 552.357 884.163 546.265 884.225 544L884.255 542.257C884.263 543.488 884.77 543.413 884.774 544.213C884.792 547.566 885.61 550.611 885.829 553.982L884.72 554.421Z"/><path fill="#2A2324" d="M921.104 480.44C954.506 499.22 954.652 583.733 920.033 598.842C933.138 585.175 937.168 566.063 938.121 547.563C937.67 547.357 937.579 547.308 937.134 547.491C937.085 545.139 937.53 542.157 937.572 539.594C937.642 535.326 936.931 532.066 936.632 527.939L937.803 527.616C934.972 506.984 932.954 497.537 921.104 480.44Z"/><path fill="#83858C" d="M937.803 527.616C938.426 530.737 938.961 544.746 938.121 547.563C937.67 547.357 937.579 547.308 937.134 547.491C937.085 545.139 937.53 542.157 937.572 539.594C937.642 535.326 936.931 532.066 936.632 527.939L937.803 527.616Z"/><path fill="#F4EDEA" d="M410.424 655.798C349.657 666.702 288.044 677.525 226.59 683.456C187.307 687.247 93.721 695.481 78.1701 647.045C74.8739 636.699 75.9147 625.459 81.0544 615.895C87.7639 603.122 102.059 589.702 113.403 580.422C165.225 538.026 227.48 506.971 289.276 482.153C319.18 470.143 348.704 462.195 379.066 452.885L379.957 453.93C300.373 478.259 224.469 511.102 158.515 562.753C138.392 578.513 118.519 595.204 105.264 617.353C94.5681 635.228 101.935 656.852 121.109 664.27C163.837 680.801 221.532 675.052 266.312 671.32C290.998 669.423 315.636 666.952 340.207 663.909C354.974 662.194 369.723 660.329 384.452 658.312C392.141 657.292 401.705 656.268 409.22 654.754L410.424 655.798Z"/><path fill="#F4EDEA" d="M134.751 545.067C139.101 505.911 168.744 462.614 212.976 471.794C214.523 472.62 214.513 472.593 216.213 472.924C229.157 478.344 233.819 483.11 242.888 493.744L222.618 504.142C221.113 504.975 219.735 505.59 218.195 506.333C216.161 505.339 214.211 504.293 212.126 503.395C197.707 499.835 188.946 500.951 175.502 508.503C167.488 513.005 157.094 524.264 154.155 533.044L153.29 532.646C154.479 529.509 155.895 526.462 157.526 523.53C170.057 501.065 192.77 485.073 217.828 499.186L218.841 498.416C198.218 479.097 174.289 484.18 155.6 503.805C144.815 515.131 138.957 530.312 135.831 545.447L134.751 545.067Z"/><path fill="#CED7DD" d="M212.126 503.395C215.596 502.987 219.219 503.366 222.618 504.142C221.113 504.975 219.735 505.59 218.195 506.333C216.161 505.339 214.211 504.293 212.126 503.395Z"/><path fill="#2A2324" d="M218.841 498.416C219.898 499.403 221.609 501.47 218.818 499.773C218.49 499.574 218.16 499.379 217.828 499.186L218.841 498.416Z"/><path fill="#F4EDEA" d="M350.154 450.803C360.525 445.326 370.113 438.726 379.56 431.754C391.037 423.283 402.121 412.6 415.496 407.291C422.045 404.692 431.294 404.41 438.037 406.48C450.454 410.292 463.464 417.211 475.449 422.762C508.345 438 543.963 452.4 580.692 453.487C597.561 453.986 612.949 448.597 625.016 436.79L625.582 438.139C610.792 452.508 596.572 458.285 575.463 457.828C541.553 456.84 508.801 443.66 477.744 431.104C464.875 425.9 453.526 419.826 439.937 416.55C417.212 411.069 401.702 422.706 383.373 433.92C373.608 439.895 361.522 446.527 351.136 451.691L350.154 450.803Z"/><path fill="#F4EDEA" d="M82.4373 599.4C70.2027 553.198 85.5333 503.408 126.144 476.644C148.534 461.889 171.456 458.593 197.265 464.386L197.484 465.713C185.364 461.561 166.681 463.438 154.997 467.47C111.147 482.602 85.5232 530.927 89.2633 575.886C89.6675 580.744 89.9517 586.015 91.528 590.667C88.9603 592.721 85.0406 596.904 82.4373 599.4Z"/><path fill="#F4EDEA" d="M294.285 601.281C293.816 599.54 293.469 597.769 293.246 595.98C292.113 586.212 297.696 575.049 303.625 567.691C330.867 533.88 390.827 520.896 431.829 516.011L429.567 519.865C393.953 525.081 289.171 550.702 295.24 600.082L294.285 601.281Z"/><path fill="#F4EDEA" d="M630.565 634.096C638.38 632.223 647.137 629.521 655.025 627.404C673.26 622.407 691.617 617.87 710.08 613.797C739.96 607.374 774.789 603.299 805.083 599.73L806.868 600.795C753.617 608.851 700.253 622.276 647.157 631.622C642.092 632.514 636.155 633.854 631.218 635.269L630.565 634.096Z"/><path fill="#F4EDEA" d="M763.737 497.075C766.066 496.95 793.819 497.08 794.126 497.28C794.383 498.212 788.55 498.054 788.001 498.102C785.069 498.356 781.853 498.736 778.932 498.425C751.256 499.876 725.124 502.165 697.099 502.463C681.816 502.6 666.533 502.561 651.251 502.346C639.975 502.092 626.612 501.343 615.579 501.513C615.036 501.374 613.493 501.181 613.231 500.748C613.253 500.492 613.601 500.226 613.811 500.004C619.788 500.075 627.418 499.547 633.578 499.331L671.994 498.078C702.566 497.156 733.153 496.821 763.737 497.075Z"/><path fill="#83858C" d="M763.737 497.075C766.066 496.95 793.819 497.08 794.126 497.28C794.383 498.212 788.55 498.054 788.001 498.102C785.069 498.356 781.853 498.736 778.932 498.425C778.466 497.136 766.279 497.469 763.737 497.075Z"/><path fill="#F4EDEA" d="M714.804 379.031C733.628 378.938 753.267 377.754 772.327 377.547C801.314 377.233 829.733 377.779 858.648 377.988C859.349 378.357 860.008 378.722 860.7 379.107C815.904 380.653 771.077 381.093 726.26 380.425C722.75 380.588 703.611 380.812 701.472 379.927C702.254 379.435 702.532 379.504 702.621 378.551C704.645 379.666 711.655 378.959 714.804 379.031Z"/><path fill="#ADAEB2" d="M701.472 379.927C702.254 379.435 702.532 379.504 702.621 378.551C704.645 379.666 711.655 378.959 714.804 379.031C713.825 379.34 713.237 379.567 712.249 379.744C716.925 380.146 721.771 379.802 726.26 380.425C722.75 380.588 703.611 380.812 701.472 379.927Z"/><path fill="#F4EDEA" d="M497.663 424.68C512.884 412.045 533.027 401.288 552.756 399.097C575.609 396.559 592.453 404.017 610.074 417.899L609.753 419.245C572.735 392.5 533.156 399.501 498.188 425.786L497.663 424.68Z"/><path fill="#83858C" d="M379.066 452.885C381.543 452.17 383.909 451.465 386.414 450.782L389.012 450.062C393.998 448.707 405.491 445.136 410.242 445.233C409.463 445.728 401.29 447.815 399.814 448.218C398.954 448.452 398.096 448.696 397.241 448.947C391.477 450.596 385.752 452.397 379.957 453.93L379.066 452.885Z"/><path fill="#83858C" d="M614.951 416.911C615.167 417.1 615.078 417.051 615.223 417.105C615.564 417.004 615.806 416.522 615.997 416.259C615.877 418.202 615.557 420.304 615.296 422.245C616.869 423.704 623.357 429.576 623.642 431.247L623.612 431.286C624.245 431.348 610.584 420.005 609.753 419.245L610.074 417.899C610.673 418.38 614.072 421.386 614.56 421.381C615.08 421.375 614.676 418.015 614.951 416.911Z"/><path fill="#83858C" d="M640.839 420.677C647.435 419.426 658.749 418.187 665.271 419.419C661.833 419.623 657.432 419.029 654.85 420.451C652.924 420.749 642.918 420.837 640.839 420.677Z"/><path fill="#83858C" d="M197.265 464.386L199.238 464.98C203.133 466.148 214.311 469.53 216.213 472.924C214.513 472.593 214.523 472.62 212.976 471.794C213.059 471.506 213.224 471.137 213.139 470.874C210.149 469.344 200.774 466.62 197.484 465.713L197.265 464.386Z"/><path fill="#ADAEB2" d="M625.016 436.79L625.649 436.092C627.831 433.698 629.952 431.249 632.009 428.747C633.735 426.528 635.073 424.479 637.004 422.447C633.527 428.744 630.828 432.919 625.582 438.139L625.016 436.79Z"/><path fill="#83858C" d="M631.218 635.269C628.656 635.824 616.856 638.856 614.914 638.745L614.893 638.716C615.479 637.523 628.685 634.386 630.565 634.096L631.218 635.269Z"/><path fill="#CED7DD" d="M615.039 400.291C616.38 404.441 615.019 405.999 616.384 408.387C616.487 411.077 616.043 413.457 615.997 416.259C615.806 416.522 615.564 417.004 615.223 417.105C615.078 417.051 615.167 417.1 614.951 416.911C614.946 411.543 614.916 405.625 615.039 400.291Z"/><path fill="#83858C" d="M409.22 654.754C410.518 654.506 422.745 652.585 423.287 652.822C421.561 653.953 412.411 655.666 410.424 655.798L409.22 654.754Z"/><path fill="#83858C" d="M615.579 501.513C612.551 501.597 609.521 501.532 606.499 501.317C605.307 501.241 605.106 501.246 603.911 501.014L603.706 500.708C603.24 500.775 603.158 500.837 602.997 500.76L603.059 500.733L603.084 500.756C606.309 500.036 610.458 499.942 613.811 500.004C613.601 500.226 613.253 500.492 613.231 500.748C613.493 501.181 615.036 501.374 615.579 501.513Z"/><path fill="#ADAEB2" d="M805.083 599.73C806.207 599.413 815.604 598.038 816.081 598.756C816.052 598.804 816.022 598.852 815.993 598.9L815.815 598.748L815.536 599.245C814.297 599.777 808.263 600.66 806.868 600.795L805.083 599.73Z"/><path fill="#ADAEB2" d="M900.886 622.731C901.49 622.835 901.478 622.82 901.985 623.162C898.139 625.412 895.692 625.966 891.541 627.21L891.009 625.985C895.053 624.839 897.003 624.77 900.886 622.731Z"/><path fill="#83858C" d="M858.648 377.988C860.645 377.923 869.592 377.877 871.079 378.529L871.166 378.649C870.669 378.988 861.847 379.258 860.7 379.107C860.008 378.722 859.349 378.357 858.648 377.988Z"/><path fill="#83858C" d="M135.831 545.447C135.772 546.329 135.126 554.092 134.643 554.602L134.557 554.602C134.323 554.353 134.424 554.514 134.324 554.081L134.666 554.237L134.299 554.076C134.014 552.7 134.221 546.36 134.751 545.067L135.831 545.447Z"/><path fill="#83858C" d="M550.24 399.829C550.153 396.431 550.555 392.351 551.189 389.018L552.355 388.992C552.001 392.987 551.208 396.006 550.24 399.829Z"/><path fill="#3C4657" d="M332.865 460.43C336.381 457.577 338.437 456.309 342.739 454.683L343.18 455.638C339.775 457.076 336.508 458.895 332.865 460.43Z"/><path fill="#ADAEB2" d="M350.154 450.803L351.136 451.691C348.682 453.065 345.292 454.313 343.18 455.638L342.739 454.683C345.256 453.586 347.65 452.037 350.154 450.803Z"/><path fill="#CED7DD" d="M497.663 424.68L498.188 425.786C495.727 427.757 493.491 429.714 491.084 431.724C493.501 428.751 494.71 427.196 497.663 424.68Z"/><path fill="#83858C" d="M154.155 533.044C153.912 533.627 152.672 537.231 152.14 537.236C151.931 537.071 152.046 537.198 151.972 536.747L152.314 536.786L152.007 536.266C152.28 535.056 152.809 533.785 153.29 532.646L154.155 533.044Z"/><path fill="#ADAEB2" d="M295.24 600.082C295.444 600.635 296.304 603.375 295.797 603.706C295.286 603.488 294.54 601.741 294.285 601.281L295.24 600.082Z"/></svg>